<svg xmlns="http://www.w3.org/2000/svg" xmlns:xlink="http://www.w3.org/1999/xlink" viewBox="0 0 386.11 291.07" width="406" height="306" xmlns:v="https://vecta.io/nano"><style><![CDATA[.B{fill:#3c4859}.C{fill:#fff}.D{fill:#2f3554}.E{fill:#ec9c7d}.F{fill:#4c506d}.G{fill:#fdb9a9}.H{fill:#d68369}]]></style><defs><linearGradient id="A" x1="213.3" y1="132.98" x2="208.8" y2="308.67" gradientUnits="userSpaceOnUse"><stop offset=".01"/><stop offset=".08" stop-opacity=".69"/><stop offset=".21" stop-opacity=".32"/><stop offset="1" stop-opacity="0"/></linearGradient><linearGradient id="B" x1="94.75" y1="231.25" x2="247.73" y2="224.48" xlink:href="#A"/><linearGradient id="C" x1="263.78" y1="255.62" x2="230.94" y2="264.07" xlink:href="#A"/><linearGradient id="D" x1="279.48" y1="262.98" x2="246.63" y2="271.42" xlink:href="#A"/><linearGradient id="E" x1="300.34" y1="180.46" x2="277.88" y2="180.46" xlink:href="#A"/><linearGradient id="F" x1="293.05" y1="163.94" x2="315.02" y2="221.01" xlink:href="#A"/><linearGradient id="G" x1="208.67" y1="132.13" x2="203.6" y2="182.53" xlink:href="#A"/><linearGradient id="H" x1="180.2" y1="150.19" x2="151.67" y2="141.93" xlink:href="#A"/></defs><path d="M1.41 190.75c1.93 8.41 5.84 16.43 12 22.47 4.82 4.76 7 7.11 10.14 13.22a109.12 109.12 0 0 0 10.37 16.25c15.34 19.9 37.28 33.61 61.08 41.1 28.33 8.9 59 9.15 88.08 3.38 15.21-3 30.25-7.64 45.75-8 11.75-.3 23.39 1.84 35 3.38 39.41 5.26 110.58 8.35 119.71-42.55 2.3-12.78-.15-25-3.59-37.31a44 44 0 0 0-7.1-14.22c-2.39-3.41-5-6.74-7.59-10.92-6-6-5.36-22.92-4.15-30.77 1.59-10.34 9.24-19.32 14.65-28.06 4-6.51 8.14-13.2 9.66-20.71 2.08-10.31-.93-20.9-3.92-31-3.25-11-6.78-22.38-14.71-30.61-6-6.22-14-10.06-21.8-13.76-21.16-10-43.25-20.38-66.92-22.29s-42.84 4-62.53 17.11c-14.22 9.41-28.08 20.12-44.48 24.75-12 3.39-24.69 3.29-37.1 4.62a163.46 163.46 0 0 0-105.82 55.84 97.48 97.48 0 0 0-11.72 16.57 122.14 122.14 0 0 0-7.36 17.22c-5.09 14.11-9.64 28.8-9 43.79a56.32 56.32 0 0 0 1.35 10.5z" opacity=".18" class="B"/><path d="M165.14 167.56a17.92 17.92 0 0 0-1.82-.88 6 6 0 0 0-2.38-.08l-9.59 1a3 3 0 0 0-1.63.5c-.64.52-.73 1.43-1 2.22-1.18 3.58-5.77 4.33-9.24 5.8a3.62 3.62 0 0 0-1.57 1.07c-.85 1.15-.23 2.84.75 3.88 2.23 2.36 5.75 2.82 9 3.06q7 .51 14 .47c3.59 0 9 .74 12.35-.81 6-2.82 2.77-9.16-1.65-11.13 2.6-4.44-5.22-4.26-7.22-5.1z" class="F"/><path d="M330.23 256.89l-4.62 5.44 26 7.84a3.65 3.65 0 0 1 2.28 1.4c1 1.76-1.31 3.5-3.19 4.17-31.81 11.39-66.77 1.53-100.54.72-18.8-.46-37.53 2-56.29 3.37-9.2.7-18.46 1.16-27.64.16a203.52 203.52 0 0 1-20.63-3.85c-21.23-4.57-42.79-8-64.5-8.42-4.1-.08-8.27-.08-12.16-1.37a5.42 5.42 0 0 1-2.71-1.65c-1.27-1.65-.56-4.21 1-5.6s3.69-1.9 5.73-2.32c52.36-10.65 106.23 9.48 159.58 6.41 15.09-.87 30.76-.16 45.69-2.68 8-1.36 15.9-3.53 24-4.43 3.52-.39 26.99 1.99 28 .81z" transform="translate(-8.86 -36.54)" fill="url(#A)"/><path d="M227 86.13a16.34 16.34 0 0 1 3.58 2.22 5.56 5.56 0 0 1 4.27-1.85c1.59.15 3.09 1.64 2.81 3.21-.1.6-.43 1.13-.51 1.73-.18 1.37.94 2.51 1.94 3.45a21.8 21.8 0 0 1 4.14 4.89 8.82 8.82 0 0 1 1.16 6.18 5.45 5.45 0 0 0-.31 2.71c.3 1 1.36 1.59 2 2.44 1.07 1.41.86 3.4.41 5.11s-1.11 3.47-.76 5.2c.23 1.18.9 2.24 1.07 3.42.29 2.17-1.51 3.32-1.95 5.18-.57 2.35-1.14 4.5-2.89 6.3a4.87 4.87 0 0 1-2.11 1.37 6.71 6.71 0 0 1-3.15-.16 30.82 30.82 0 0 1-6.9-2.07 10.39 10.39 0 0 1-5.13-4.87 15.69 15.69 0 0 1-1-3.92l-1.75-11a38.69 38.69 0 0 1-.67-6.62c.07-4.67 1.83-9.38.74-13.93-.55-2.23-2.36-6.56-.36-8.44a4.86 4.86 0 0 1 4.67-.81z" class="D"/><path d="M91.54 182.65h228.87v5.81H91.54z" class="B"/><path d="M175.92 108.81c-1.87-.5-3.8-.41-5.74-.95a7.72 7.72 0 0 1-3.91-2.57 4.83 4.83 0 0 1-.76-4.49 1.25 1.25 0 0 1 .63-.76 1.47 1.47 0 0 1 .88 0 30.81 30.81 0 0 1 3.65 1.13 3.93 3.93 0 0 0 1.31.32 1.15 1.15 0 0 0 1.07-.68 1.53 1.53 0 0 1 .17-.55.63.63 0 0 1 .87-.06 2 2 0 0 1 .52.83 7.68 7.68 0 0 0 3.11 4.22 12.53 12.53 0 0 0 5.46 1.87c1.41.12 2.84 0 4.24.24a8.62 8.62 0 0 1 4.44 2.2 1.36 1.36 0 0 1 .44.62 1.39 1.39 0 0 1-.08.78c-.41 1.43-1 3-2.28 3.71a4.21 4.21 0 0 1-3.28.23 11.52 11.52 0 0 1-3-1.59 41.55 41.55 0 0 0-6.57-4.07 8.2 8.2 0 0 0-1.17-.43zm28.66 97.71c-5.16-1.16-4.15 6.14-5.5 8.85a14.8 14.8 0 0 1-3.18 3.65 6.62 6.62 0 0 0-2.32 4.15 1.59 1.59 0 0 0 .18.88 1.67 1.67 0 0 0 1 .61 11.83 11.83 0 0 0 8.81-.87 6.88 6.88 0 0 0 3-2.8 9.57 9.57 0 0 0 .78-4.16c.17-3.04 1.52-9.37-2.77-10.31z" class="G"/><path d="M200.02 221.56s-14.65.62-8.45 5.22 15.47-1.12 16.38-2.17.17-2.85.17-2.85z" class="B"/><path d="M207.31 223.58c-1.31 1.59-8.19 3.73-11.24 3.51s-5.78-1.64-5.48-3.61 5.68-6.55 6.69-6.54 1.82 2.35 3.85 2.84a5.43 5.43 0 0 0 5-1.78 1.37 1.37 0 0 1 1.67-.43 6.5 6.5 0 0 1-.49 6.01z" class="C"/><path d="M222.24 209.46c-5.15-1.2-4.14 6.1-5.5 8.81a14.27 14.27 0 0 1-3.18 3.66 6.47 6.47 0 0 0-2.31 4.15 1.46 1.46 0 0 0 .18.87 1.68 1.68 0 0 0 1 .62 11.93 11.93 0 0 0 8.81-.87 7 7 0 0 0 3-2.81 9.71 9.71 0 0 0 .78-4.15c.12-3.13 1.51-9.42-2.78-10.28z" class="G"/><path d="M217.68 224.37s-14.65.62-8.44 5.23 15.47-1.14 16.37-2.14.17-2.86.17-2.86z" class="B"/><path d="M224.97 226.36c-1.31 1.6-8.19 3.74-11.23 3.52s-5.79-1.63-5.49-3.6 5.68-6.56 6.69-6.55 1.82 2.36 3.86 2.84a5.43 5.43 0 0 0 5-1.78 1.37 1.37 0 0 1 1.67-.43 6.48 6.48 0 0 1-.5 6z" class="C"/><g fill="#473f47"><path d="M208.96 142.94l6.89 72.45 9.92-1.22c3.92-17.68 3-70.57 3-70.57z"/><path d="M215.85 140.98l-6.89 72.48-9.94-1.22c-5.68-45.85-1-74.39-1-74.39z"/></g><g class="C"><path d="M187.79 107.62c0-.35.26-.53.57-.85l2.27-2.32 6.43-6.59 5.32-5.45v16.56c0 1.35.26 2.54-1.2 3.22a8.54 8.54 0 0 1-1.85.48 47.48 47.48 0 0 0-7.94 2.13 3.56 3.56 0 0 1-1.2.28 1.12 1.12 0 0 1-1-.58c-.3-.66.34-1.35.47-2a3 3 0 0 0-.21-1.45 14.11 14.11 0 0 0-.55-1.54c-.25-.54-.84-1.05-1-1.57a.76.76 0 0 1-.11-.32z"/><path d="M198.89 114.78c-.12-1.33-.47-2.64-.61-4a30.11 30.11 0 0 1 .15-8.21 31.51 31.51 0 0 1 2.59-8.37c1.15-2.3 3.22-3.28 5.54-4.42a19.53 19.53 0 0 1 6.25-2.13 15.93 15.93 0 0 1 4.62.26c4.67.89 10.84 3.3 14 7 2.4 2.78 2.69 6.74 2.76 10.41q.15 7.59-.31 15.18-.06 1.1-.15 2.19c-.43 5.55-.88 11.31-2.46 16.66-.5 1.68-1 3.37-2.58 4.27-3.65 2.13-9.25 1-13.21.41-5.24-.74-10.63-1.52-15.28-4.07a4.33 4.33 0 0 1-2.21-2.13c-.41-1.13.09-2.37.44-3.53 1.57-5.17.35-10.62.35-15.9 0-1 .13-1.93.13-2.89.02-.24-.02-.49-.02-.73z"/></g><path d="M219.87 144.95c-.52-1 .57-3.69.16-5.08-.72-2.53-1.61-4.48-1.49-7.28a36.84 36.84 0 0 1 .91-6l3.36-16c.61-2.93 1.94-17 6.41-15.44a9.3 9.3 0 0 1 5.24 5.83 24 24 0 0 1 .93 8c-.08 7-1.48 14.24-2.38 21.23-.35 2.65-.76 12.47-4.26 13.34-.68.18-1.36.52-2 .65-1.18.21-4.71 1.61-6.24 1.15a.94.94 0 0 1-.64-.4z" fill="#020202" opacity=".1"/><path d="M214.58 145.19a11.06 11.06 0 0 0-1.14 6.87.62.62 0 0 0 .37.59.53.53 0 0 0 .44-.08c.9-.55.79-2.32 1.84-2.38a1.76 1.76 0 0 1 .64.15 14.21 14.21 0 0 0 2.83 1 3.86 3.86 0 0 0 2.87-.49 4.56 4.56 0 0 0 1.56-3.47 15 15 0 0 1 .48-4.12 21.91 21.91 0 0 0 1-3.82c.49-2.86.81-5.82 2.13-8.45 1-2 2.51-3.64 3.55-5.59 1.14-2.14 2.12-6.7-1.14-7.32a11.1 11.1 0 0 0-3.15-.14 2.63 2.63 0 0 0-1.13.32 2.9 2.9 0 0 0-1 1.68 114.6 114.6 0 0 0-4.73 17.34c-.62 3.48-3.86 4.74-5.42 7.91zm-5.6-64.81a38.23 38.23 0 0 1 .26-4.16l.56-3.61a2.41 2.41 0 0 1 .92-1.83 11.55 11.55 0 0 1 6.19-1.7 5 5 0 0 1 5.7 4.18 4.74 4.74 0 0 1 .06.75c.33 3-.46 6.07-.9 9.1a38.24 38.24 0 0 0-.38 7.09 8.28 8.28 0 0 1-3.82 1.35 6 6 0 0 1-1.88-.31 1.38 1.38 0 0 1-.84-.55 1.52 1.52 0 0 1-.07-.79 6.34 6.34 0 0 0 .07-.75h0a23 23 0 0 0-.08-4.15.43.43 0 0 0-.12-.31.48.48 0 0 0-.29 0h-.39a10.23 10.23 0 0 1-2.07 0 3.39 3.39 0 0 1-2.16-1.07 4.53 4.53 0 0 1-.76-3.24z" class="G"/><path d="M211.25 71.97a2.31 2.31 0 0 1-3.22.54l-.09-.07a.63.63 0 0 1-.28-.63c-.52.05-.86-.54-.93-1.06a3.08 3.08 0 0 1 .9-2.54 3 3 0 0 1 2.57-.79 2.82 2.82 0 0 1 1.21-2.06 2.87 2.87 0 0 1 2.37-.34 2.31 2.31 0 0 1 1.49-.93 7.1 7.1 0 0 1 2.62-.43 2.59 2.59 0 0 1 2.16 1.35.76.76 0 0 0 .13.23.62.62 0 0 0 .42.1 5.66 5.66 0 0 1 3 .59 4.43 4.43 0 0 1 2 2.76c.34 1.3 0 2.48.06 3.76 0 .24.28.38.49.51a4.32 4.32 0 0 1 1.28 1.24 3.84 3.84 0 0 1 .68 1.93c.07 1.71-1.14 3.21-2.45 4.3l-2.25 1.8a9.44 9.44 0 0 0-1 1c-.2.25-.4.82-.74.88s-.59-.3-.68-.62a6.21 6.21 0 0 1 .28-4.14 4.64 4.64 0 0 0 .67-2.11c-.07-.74-1.07-1.32-1.56-.89s-.57 1.5-1.16 1.29a7.76 7.76 0 0 0 .22-1.79 5.34 5.34 0 0 0-.42-1.75c-.3-.66-1.7-2.72-2.59-1.86a2.14 2.14 0 0 1-.44.41.8.8 0 0 1-.78-.06 2.66 2.66 0 0 1-.58-.58 2.52 2.52 0 0 1-1.74 1 1.43 1.43 0 0 1-1.64-1.04z" class="D"/><path d="M213.98 84.64a23.2 23.2 0 0 0 4.69-1.39c.13 4.89-3.84 5.9-3.84 5.9h0a23 23 0 0 0-.08-4.15.43.43 0 0 0-.12-.31.48.48 0 0 0-.29 0h-.36z" fill="#de9f93"/><path d="M97.95 142.67c2.85 1.64 5.25-.07 6-3 .31-1.31.43-2.67.86-4a19.78 19.78 0 0 1 2.61-4.61 12.8 12.8 0 0 0 2.28-4.76 5 5 0 0 0-1.54-4.82 1.57 1.57 0 0 0-1.13-.4c-.66.06-1 .81-1.16 1.47a8.42 8.42 0 0 1-.31 2 3.87 3.87 0 0 1-2.35 1.78c-2.22.91-4.6 1.72-6.16 3.53a8.37 8.37 0 0 0-1.77 5.92c.08 2.09.7 5.77 2.67 6.89z" class="D"/><path d="M125.31 156.85l-3.17 12.06c-9.36 1.94-20-1.78-20-1.78.51-5.38 0-12.73-1-15-2.65-6.1-5.91-14.19-2.12-18.8 3.06-3.72 8.66-3.36 12.08-3.26a98.09 98.09 0 0 0 10.14-.38c12.99 13.93 4.07 27.16 4.07 27.16z" class="F"/><path d="M113.72 107.38l4 11.34s6.52.11 5.18-6.42-5.85-6.8-5.85-6.8z" class="D"/><path d="M107.86 107.51s10.91-3.07 12.7 4.58a20.63 20.63 0 0 1 .55 4.83 15.35 15.35 0 0 1-.06 1.66c-.49 5-3 8.8-7.06 8.46-7.09-.58-14.66-15.7-6.13-19.53z" class="E"/><path d="M109.14 121.81a.7.7 0 0 1-1 0h0a9 9 0 0 1 1.46 4c.55 4.13-1.46 4.3-1.46 4.3 7.44 4.16 8.54 1.34 8.54 1.34a4.37 4.37 0 0 1-.27-4.65c-3.38.93-6.35-3.05-7-5.31a.74.74 0 0 1-.27.32z" class="H"/><path d="M115.69 106.38a4.52 4.52 0 0 0-1.79-.24c-3 0-6.17.18-8.89 1.53-1.72.85-3.32 2.37-3.45 4.29a7.73 7.73 0 0 0 .55 2.85 8.52 8.52 0 0 1 .6 2.21c0 .58-.23 1.18-.23 1.78a6.74 6.74 0 0 0 1.15 3.71 13 13 0 0 0 2.06 2.2l1.62 1.47a.48.48 0 0 0 .26.16.41.41 0 0 0 .24-.08 3.54 3.54 0 0 0 1.77-3.41 2 2 0 0 0-.6-1.33 7.65 7.65 0 0 0-1-.58 2.64 2.64 0 0 1-1.26-2.25 1.09 1.09 0 0 1 .45-1 1 1 0 0 1 1.09.19c.42.38.37.82.92.93a2.92 2.92 0 0 0 1.67-.52c3.61-2 5-7.27 6.09-11-.51-.12-.73-.69-1.25-.91z" class="D"/><path d="M107.14 145.25c-3-8.72-5-13-8.06-11.92 0 0-4 2-1.73 10 2.54 9 9.27 17.39 9.27 17.39l3.11-6.86s-1.01-3.81-2.59-8.61z" class="E"/><path d="M138.91 177.19l-1.73-2a1.7 1.7 0 0 1 .22.24c.54.56 1.04 1.17 1.51 1.76z" fill="#dc9bd5"/><g class="B"><path d="M102.58 164.59c4.13.24 8.46.53 12.7 1.14 0 0 16.62 14 18.74 17.39 4.91 7.87 9.69 5.63 2.57 17.13q-7.11 11.49-14.25 23c-2.42.81-5-1.32-5.7-3.79s0-5.09.75-7.55q2.18-7.44 4.29-14.87c.3-1.13.61-2.4 0-3.4a4.18 4.18 0 0 0-1.54-1.29c-1.69-1-2.85-3.38-4.72-3.95a31.32 31.32 0 0 1-9-4 12.69 12.69 0 0 1-5.46-7.93c-.68-3.93 1.18-7.87 1.62-11.88z"/><path d="M115.31 165.77c3.41.42 9-1.14 9-1.14 4.87 2.17 10.13 7.56 12.82 10.58h0c.93 1 1.55 1.78 1.74 2v.05h0l.27.34c3 4 4.89 8.71 6.75 13.35l9.38 23.37a5.59 5.59 0 0 1 .56 2.34c-.14 2.89-4 3.66-6.89 3.6l-12.46-20s2.36-7.14-2.58-17.13c-1.76-3.58-18.76-17.39-18.76-17.39z"/></g><path d="M124.17,202.31c3.41.42,9-1.14,9-1.14,4.87,2.17,10.13,7.56,12.82,10.58h0c.93,1,1.55,1.78,1.74,2v.05h0l.27.34c3,4,4.89,8.71,6.75,13.35l9.38,23.37a5.59,5.59,0,0,1,.56,2.34c-.14,2.89-4,3.66-6.89,3.6l-12.46-20s2.36-7.14-2.58-17.13C141,216.09,124,202.28,124,202.28Z" transform="translate(-8.86 -36.54)" fill="url(#B)"/><path d="M122.08 225.22a22.82 22.82 0 0 0-.94-2.08 12.76 12.76 0 0 0-2-1.58c-.29-.26-2-1.71-1.9-2.12a22 22 0 0 1-1.53 4 4.26 4.26 0 0 0-.71 2.5 3.81 3.81 0 0 0 1.53 2c2.66 2.19 5.84 4.27 9.26 3.88a.77.77 0 0 0 .57-.23.63.63 0 0 0 .12-.42c.06-1.52-1.42-2.54-2.53-3.57a9.6 9.6 0 0 1-1.87-2.38zm33.46-6.58c-.69-.8-.75-.82-1.77-.36a13 13 0 0 0-2.11 1.21.47.47 0 0 0-.2.22.48.48 0 0 0 0 .29l1 3a2.06 2.06 0 0 0 .65 1.12 2 2 0 0 0 .91.28 22.09 22.09 0 0 0 7.52.22c.64-.13 1.34-.48 1.34-1.1a1.09 1.09 0 0 0-.25-.64c-.76-1-2.16-1.25-3.36-1.68a8.78 8.78 0 0 1-3.73-2.56z" class="E"/><path d="M153.56 223.73a5.28 5.28 0 0 1 2 .36 14.85 14.85 0 0 0 2.31.26 2.44 2.44 0 0 0 1.88-.5c.46-.46.52-1.2.93-1.72a2 2 0 0 1 1.56-.7 4.87 4.87 0 0 1 1.72.37 8.31 8.31 0 0 1 3.76 2.57.68.68 0 0 1 .19.47.61.61 0 0 1-.13.32 3.71 3.71 0 0 1-2.65 1.16 45.75 45.75 0 0 1-6.82.63 17.15 17.15 0 0 0-3.36.12 1.09 1.09 0 0 1-.62 0 .92.92 0 0 1-.3-.35c-.39-.67-1.8-2.65-.47-2.99zm-37.99.86c.65.21 1.2 1.14 1.67 1.62a19.29 19.29 0 0 0 2 1.72 2.82 2.82 0 0 0 2.11.71c.74-.15 1.27-.82 2-1.05a2.29 2.29 0 0 1 1.92.33 5.56 5.56 0 0 1 1.41 1.41 9.62 9.62 0 0 1 1.94 4.84.82.82 0 0 1-.12.57.74.74 0 0 1-.33.22 4.3 4.3 0 0 1-3.26-.59 50.45 50.45 0 0 1-6.85-3.74 18.32 18.32 0 0 0-3.28-2 1 1 0 0 1-.57-.39.84.84 0 0 1-.07-.52c.07-.93 0-3.71 1.43-3.13z" class="B"/><path d="M96.14 135.88c.75-2 4.54-6.59 7.1-4.71a8.94 8.94 0 0 1 3.33 4.94c.24.91.33 1.88.56 2.82.31 1.16.79 2.26 1 3.43a14.11 14.11 0 0 1 .07 3.73q-3.66-.51-7.3-1.07l-3.64-.58c-.68-.11-2.06.17-2.39-.54a2.15 2.15 0 0 1-.07-1.28l.29-2.07a22.25 22.25 0 0 1 1-4.49 1.21 1.21 0 0 1 .05-.18z" class="F"/><path d="M252.63 220.16v6.06h-21.68s1.27-4.65 9.86-6.06l2.81-2.29z" class="B"/><path d="M261.49,255.49v6.05H239.81s1.27-4.64,9.86-6.05l2.81-2.29Z" transform="translate(-8.86 -36.54)" fill="url(#C)"/><path d="M268.33 227.52v6.05h-21.68s1.27-4.65 9.85-6.05l2.82-2.29z" class="B"/><path d="M277.19,262.84v6.06H255.51s1.27-4.65,9.85-6.06l2.82-2.29Z" transform="translate(-8.86 -36.54)" fill="url(#D)"/><g class="B"><path d="M309.14 149.66a20.72 20.72 0 0 0-1.36 3.9l-1.08 4.9a55.6 55.6 0 0 0-.82 10.06c0 1.33 0 2.83-1 3.75a4.64 4.64 0 0 1-2.43 1c-1.73.35-3.29 1-5 1.32a33.6 33.6 0 0 1-5.67.34c-5.59 0-16-.62-15.66-8.45.38-8.86 1.07-17.48 2.31-26.32.42-2.95.51-6.37 1.4-9.22.77-2.38 3.55-2.41 5.86-2.16h.45a8.36 8.36 0 0 1 1.32.17 63.87 63.87 0 0 0 9.28.26c3.48-.1 9.05-.45 12.48 2.83a9.07 9.07 0 0 1 .67.72c3.43 4.21 1.57 10.95-.75 16.9z"/><path d="M264 147.57a36.78 36.78 0 0 0-.46 5.64 3.4 3.4 0 0 0 .41 1.9 3.22 3.22 0 0 0 2.87 1 13 13 0 0 0 9-3.76 56.2 56.2 0 0 0 6.09-7.16 5.91 5.91 0 0 0 1.37-4.34l-.28-6.43c0-.5-3.49-.11-3.84 0a13.94 13.94 0 0 0-3.65 1.64 27.54 27.54 0 0 1 .39-4.44 2.18 2.18 0 0 0-.15-1.26c-.39-.69-1.37-.76-2.17-.69-1.73.13-3.64.42-4.72 1.77a6.82 6.82 0 0 0-1 2.11 83.87 83.87 0 0 0-3.86 14.02z"/></g><g transform="translate(-8.86 -36.54)"><path d="M278,185.91a3,3,0,0,0,.2,2.08c.77,1.17,2.54.77,3.79.2a28.48,28.48,0,0,0,4.77-2.87,1.3,1.3,0,0,1,.95-.37,1.38,1.38,0,0,1,.63.46,24.68,24.68,0,0,0,8.37,6c1.08.47,2.51.76,3.29-.09s.17-2.45-.53-3.52l-8.23-12.72a1,1,0,0,0-.44-.42c-.31-.11-.63.13-.88.35a16.88,16.88,0,0,1-3.74,2.45,2.16,2.16,0,0,1-1.59.29c-.77-.26-1-1.2-1.13-2a21.4,21.4,0,0,1-.11-4,3.68,3.68,0,0,0-.11-1.65,1.84,1.84,0,0,0-2.44-.87h0a.56.56,0,0,0-.17.09c-1,.77-.86,3.67-1,4.91Z" fill="url(#E)"/><path d="M306.44 185.46a12.13 12.13 0 0 1-2.95 3.54c-1.35 1.05-4.46 5.16-6.39 3.9a7.75 7.75 0 0 0 2.93 1.62c-3 2.09-6.74 2.65-10.32 3.32a7.06 7.06 0 0 0-2.64.89 2.51 2.51 0 0 0-1.21 2.36c.26 1.62 2.3 2.1 3.95 2.2 4 .25 8.05.33 12.05.82 3.4.42 7.07 1.31 9.16 4a1.47 1.47 0 0 0 .61.55.94.94 0 0 0 1.08-.52 3 3 0 0 0 .22-1.28 36.93 36.93 0 0 1 1.53-9.85c.39-1.29.43-2.61.81-3.84.46-1.54 1.3-3 1.82-4.49a43.38 43.38 0 0 0 2.1-9.42c.24-2.25.08-5-1.85-6.15a4.24 4.24 0 0 0-4.61.48 9.77 9.77 0 0 0-2.83 3.92c-1.16 2.61-2.03 5.49-3.46 7.95z" fill="url(#F)"/></g><path d="M309.22 132.1c-3.43-3.28-9-2.93-12.49-2.82a65.22 65.22 0 0 1-9.27-.27c-.44-.06-.88-.12-1.33-.16 1.84-.77 4.45-.25 6.42-.19q4.45.15 8.91.55c2.82.25 5.93.74 7.76 2.89z" class="C"/><path d="M298.66 119.84a6.28 6.28 0 0 1-7.63 3.77s1.45 4.41-.37 7.07c-.34.5 1.94 1 2.07 1a9.49 9.49 0 0 0 3.75-.8 25.28 25.28 0 0 1 5.74-1.9 4 4 0 0 1-2.08-2.16c-1.06-2.22-.71-4.22-.29-6.49a.86.86 0 0 1-1-.1.72.72 0 0 1-.19-.39z" class="H"/><path d="M294.68 125.51c-4.28 1.26-7.77-2.27-9.35-7.48-.17-.57-.31-1.16-.44-1.77a22.72 22.72 0 0 1-.46-5.27c.23-8.54 12.51-7.68 12.51-7.68 9.94 2.23 5.2 20.01-2.26 22.2z" class="E"/><path d="M288.38 101.92a6.58 6.58 0 0 0-3.84 2.68 19.67 19.67 0 0 1-1.34 2.14c-.76.93-1.9 1.6-2.3 2.73a8.62 8.62 0 0 0 5.63-1 1.55 1.55 0 0 0 1.34.77 4.83 4.83 0 0 0 1.6-.3 1.48 1.48 0 0 1 .88-.08 1.76 1.76 0 0 1 .58.43 3.91 3.91 0 0 0 3.7.76c.77-.23 1.54-.69 2.26-.46a2.37 2.37 0 0 1 1.25 2.17c0 .52-.26 1-.28 1.56a4.62 4.62 0 0 0 .24 1.65 4 4 0 0 1 1-1 1.38 1.38 0 0 1 1.36-.06 1.44 1.44 0 0 1 .42.43 2.68 2.68 0 0 1-.43 3.41l.38 1.6a8.48 8.48 0 0 0 1.6-2.53 15 15 0 0 1 1.3-3 7.39 7.39 0 0 0 1-1.37 11 11 0 0 1 .41-1.09c.5-.89 1.2-1.78.91-2.87s-1.54-2-1.26-3.07l.18-.62a1.6 1.6 0 0 0-.19-.91 8.48 8.48 0 0 0-5.82-4.43 18.45 18.45 0 0 0-7.51.07l-7.47 1.24a.56.56 0 0 0-.53.24.42.42 0 0 0 0 .27c.1.54.6.9 1 1.28s.77 1 .47 1.45" fill="#ff681c"/><path d="M297.65 168.75s-5.2 13-9.38 14.37-19.63 6.08-19.63 6.08l-16.57 33.62-8.45-5.2 14-40.5 16.87-8.66s4.31.16 23.16.29z" class="D"/><path d="M304.87 171.25s1 11.85-3.21 13.22l-19.62 6.09-13.78 37.51-9-2.29 11.75-47.32 16.83-8.63s9.78-3.53 17.03 1.42z" class="F"/><path d="M311.24 138.26s-7.33 16.44-15.11 18.66-17.14-20.82-17.14-20.82l6.24-2.35 10.47 10.52s6.49-13.78 9.13-13.15 7.4 4.34 6.41 7.14z" class="B"/><path d="M277.4 124.58a3.3 3.3 0 0 1-.76 1.74 10.72 10.72 0 0 0-1 3.26 7 7 0 0 1-1.33 3.12 2.69 2.69 0 0 1-3.07.81 2.58 2.58 0 0 1-1.26-1.94 5.67 5.67 0 0 1 .27-2.38 15 15 0 0 1 1.14-2.89 7.1 7.1 0 0 1 1.76-2.31c1.1-.91 4.11-1.7 4.25.59z" class="H"/><path d="M285.22 124.8a1.59 1.59 0 0 1 .48.74 1.38 1.38 0 0 1-.12.8 9.2 9.2 0 0 1-2.89 3.42l-1.93 1.63a1.65 1.65 0 0 1-.46.32 1.6 1.6 0 0 1-.92 0l-3.9-.54a3.11 3.11 0 0 1-1.42-.44 2.5 2.5 0 0 1-.77-1.07 7.92 7.92 0 0 1 .82-7.82 4.17 4.17 0 0 1 1.46-1.31c1.83-.9 3.4.34 5 1.11a16.56 16.56 0 0 1 4.65 3.16z" class="C"/><path d="M283.02 125.34c.52-.1 1-.5 1.53-.33a.93.93 0 0 1 .44.34 1.9 1.9 0 0 1 0 2 5.6 5.6 0 0 1-1.38 1.53.86.86 0 0 1-.33.2c-.31.07-.58-.22-.78-.47l-1.82-2.46c-.4-.54-2-2.16-.58-2 1.09.11 1.7 1.42 2.92 1.19z" fill="#d8dae1"/><path d="M280.52 125.57a4.25 4.25 0 0 0-1.65-1.66 4.47 4.47 0 0 0-2.08-.29c-1.38 0-3 .25-3.66 1.46a3.15 3.15 0 0 0 .3 3c.53.9 1.29 1.66 1.83 2.55.77 1.28 1.14 2.88 2.31 3.81a4 4 0 0 0 1.68.76c2 .47 4.68-.49 4.2-2.91a21.21 21.21 0 0 0-2.93-6.72z" class="E"/><path d="M300.36 127.97a1.7 1.7 0 0 1 1 0c.5.22.73.86 1.24 1.06-1.19 1.1-2.81 1.6-4.18 2.46a18.15 18.15 0 0 0-3.78 3.54c-1.3-.71-1.22-2.72-2.35-3.67a7.94 7.94 0 0 0 2.27-1 13.69 13.69 0 0 0 1.58-.9 12 12 0 0 1 4.22-1.49zm-11.11.76a7.36 7.36 0 0 0-1.1 1.2l-1.28 1.63a.62.62 0 0 0-.2.49.46.46 0 0 0 .54.29 4.62 4.62 0 0 0 .62-.23 5.34 5.34 0 0 1 1.44-.08 5.75 5.75 0 0 0 1.72-.45.23.23 0 0 0 .2-.26 4 4 0 0 1 .26-1.68c.14-.4.41-.86.14-1.27-.52-.83-1.83-.06-2.34.36z" class="B"/><g class="E"><path d="M132.69 152l-1.78-2.06s-19 3-21.75 4.09-2.59 6.68-2.59 6.68c7.44 2.06 26.12-8.71 26.12-8.71z"/><path d="M129.28 152.56a1.15 1.15 0 0 0 .37.59 1.85 1.85 0 0 0 .65.22c1.34.32 2.38 1.39 3.66 1.89 1.74.68 3.7.27 5.51-.17a1.48 1.48 0 0 0 1.07-2.63 7.25 7.25 0 0 0-1.82-2.33c-1.59-1.2-3.81-.94-5.77-.63-1.81.29-4.48.38-3.67 3.06z"/></g><path d="M235.6 107.89a22.42 22.42 0 0 1-.08 7.49 34.25 34.25 0 0 1-.86 3.6 3.39 3.39 0 0 0-.18 1c0 .35.22.63 0 1-.29.61-1.2.35-1.79 0a14.55 14.55 0 0 0-7.83-1.53c-.64.06-1.44.09-1.76-.47a1.62 1.62 0 0 1-.12-.92l.7-8.08a47 47 0 0 1 1.72-7c.58-2.12 2.43-7.82 5.42-6.54 2.46 1.12 4.39 9.14 4.78 11.45z" class="C"/><path d="M100.81 157.07h210.34v3.64H100.81z" class="B"/><path fill="url(#G)" d="M100.81 157.07h210.34v3.64H100.81z"/><path d="M223.44 114.63a55.88 55.88 0 0 1 1.69-7.78c1.2-4.1 3.23-8.44 7.17-10.06a2.36 2.36 0 0 0 1.38-.92c.32-.65-.1-1.41-.5-2-1.95-2.91-3.81-2.88-6.42-.84-2.44 1.91-4.49 3.81-5.66 6.76a22 22 0 0 0-1.28 9.24 37.37 37.37 0 0 0 1.69 9.44c.21.69.74 1.53 1.42 1.3a55.2 55.2 0 0 1 .51-5.14z" class="D"/><path d="M175.21 95.6a3.87 3.87 0 0 1 .08 2.62c-.23 1.46-.16 3-.46 4.4a4.65 4.65 0 0 1-2.45 3.49 6.13 6.13 0 0 1-3.5 0 1.45 1.45 0 0 1-1.05-.54 1.42 1.42 0 0 1-.13-.61 11.35 11.35 0 0 0-.37-2.84c-.43-1.32-1.48-2.58-1.12-3.92.4-1.5 2.75-2.94 4.18-3.33s3.95-.67 4.82.73z" class="C"/><g class="B"><path d="M173.97 93.15a.69.69 0 0 0-.11-.28.89.89 0 0 0-.29-.26 8.81 8.81 0 0 0-1.29-.68 1 1 0 0 0-.65-.09.66.66 0 0 0-.36.3 2.2 2.2 0 0 0-.1 1.65l.18.87a3.7 3.7 0 0 1 .94-.09 2.9 2.9 0 0 1 1 .22c.23.1.47.27.72.14a.61.61 0 0 0 .28-.59 4.87 4.87 0 0 0-.32-1.19zm-4.16-.69a1.17 1.17 0 0 0-1.79 0l-1.57 1.12a2 2 0 0 0-.91 1.07 1.75 1.75 0 0 0 0 .72 7.71 7.71 0 0 0 1 2.43c-.14-.22 1.23-1.28 1.4-1.4a15.44 15.44 0 0 1 1.77-1 1.73 1.73 0 0 0 .57-2.39 1.76 1.76 0 0 0-.47-.55z"/><rect x="162.88" y="136.12" width="9.78" height="20.95" rx="2.36"/></g><rect x="162.88" y="136.12" width="9.78" height="20.95" rx="2.36" fill="url(#H)"/><path d="M177.32 160.71h3.75v72.86h-3.75zm56.68 0h3.75v72.86H234zm73.34 0h3.75v72.86h-3.75zm-205.14 0h3.75v72.86h-3.75zm177.06-41.72a3.74 3.74 0 0 1 2.38-.51 2.32 2.32 0 0 1 1.86 1.44 2.46 2.46 0 0 1 0 1.65 6.26 6.26 0 0 1-.83 1.47 6.24 6.24 0 0 0 1.34-1c.35-.34.76-.75 1.23-.62a1.2 1.2 0 0 1 .51.35l.6.65a1.46 1.46 0 0 1 .34.54 1.67 1.67 0 0 1-.33 1.24 2 2 0 0 1-1 1 1.9 1.9 0 0 1-1.57-.54l-2.08-1.54a11.12 11.12 0 0 0-1-.69c-.41-.22-.84-.42-1.27-.6s-2-.64-1.9-1.29 1.22-1.28 1.72-1.55zm-31.93 38.08h10.04l1.88-15.96-13.9-.14 1.98 16.1z" class="B"/><path d="M243.62 139.4h16.94v3.1h-16.94z" class="C"/><path fill="none" stroke="#2f3554" stroke-miterlimit="10" d="M257.04 130.37h-3.52l-1.76 9.03"/><g class="C"><path d="M184.12 157.07h33.79l2.67-3.12h-38.85l2.39 3.12z"/><path d="M207.63 150.55a7.1 7.1 0 0 0-2.05-2 6.34 6.34 0 0 0-2.67-.59 6.89 6.89 0 0 0-3.64.54 7.87 7.87 0 0 0-2.88 3.45 1.06 1.06 0 0 0-.18.55c0 .48.56.73 1 .85a25.67 25.67 0 0 0 7.9.81c.75 0 3.76.21 4.2-.53s-1.17-2.5-1.68-3.08z"/><path d="M197.49 150.55a6.81 6.81 0 0 0-2-2 6.34 6.34 0 0 0-2.67-.59 7 7 0 0 0-3.68.5 7.87 7.87 0 0 0-2.88 3.45 1.06 1.06 0 0 0-.18.55c0 .48.56.73 1 .85a25.67 25.67 0 0 0 7.9.81c.75 0 3.76.21 4.2-.53s-1.23-2.46-1.69-3.04z"/><path d="M202.69 146.04a7.1 7.1 0 0 0-2.05-2 6.53 6.53 0 0 0-2.68-.58 7 7 0 0 0-3.64.54 7.91 7.91 0 0 0-2.87 3.45 1.21 1.21 0 0 0-.19.55c0 .48.57.73 1 .85a26 26 0 0 0 7.9.81c.75 0 3.75.2 4.2-.53s-1.22-2.51-1.67-3.09zm-64.97-2.48c1.11.15 2.19.81 3.27.55s1.81-1.41 2.91-1.65a2.61 2.61 0 0 1 2.5 1.08 7.45 7.45 0 0 1 1.15 2.61 3.67 3.67 0 0 1 .23 1.94c-.35 1.43-2.18 2-2.85 3.28-.37.71-.37 1.6-.89 2.2a3.2 3.2 0 0 1-2.19.79 16.85 16.85 0 0 1-4.81 0c-2.33-.43-5.26-2.48-4.5-5.19.69-2.44 2.07-6.03 5.18-5.61z"/></g><path d="M146.14 140.35a3.1 3.1 0 0 0-.36-1.55c-.63-1-2.09-.9-3.11-.39a5.49 5.49 0 0 0-2.56 2.67 2.83 2.83 0 0 0-4-.48 2.94 2.94 0 0 0-.63.69 5.45 5.45 0 0 0-.64 1.84 2 2 0 0 0 .09 1.6 2 2 0 0 0 1.41.62l3.16.35a8.45 8.45 0 0 0 5-.7c1.69-.94 1.74-3 1.64-4.65z" class="B"/><g class="D"><path d="M281.29 149.62a6.09 6.09 0 0 1 2.89-2 9 9 0 0 1 2.74 0c4.87.44 9.68-1.08 14.53-1.72a6.76 6.76 0 0 1 4.34.48 9.86 9.86 0 0 1 1.92 1.73c2.6 2.6 6.2 4 9 6.33a1.47 1.47 0 0 1 .56.74c.2.76-.72 1.31-1.48 1.51-6.55 1.74-13.48-.75-20.22-.1-2.84.27-5.64 1.1-8.49 1a44.53 44.53 0 0 1-5.12-.88c-.89-.16-3.57 0-4.22-.56-1.42-1.31 2.49-5.4 3.55-6.53z"/><path d="M309.01 158.46a43.67 43.67 0 0 0-1.38 7.69c-.11 2.15.11 4.82 1.63 6.49a6.34 6.34 0 0 0 3 1.77 4.44 4.44 0 0 1 1.46.5 2.4 2.4 0 0 1 1 2.11 5.33 5.33 0 0 1-.77 2.29 2 2 0 0 1-.56.69 1.83 1.83 0 0 1-1.23.23 8.54 8.54 0 0 1-5.72-2.64 11.79 11.79 0 0 1-3.68-8.73c.11-2.83 1.35-5.47 2.34-8.12s1.75-5.6.86-8.29c-.08-.24-.16-.56 0-.73a.66.66 0 0 1 .43-.11c3.94.02 3.27 4.11 2.62 6.85z"/></g></svg>